<?xml version="1.0" encoding="UTF-8" standalone="no"?>
<!-- Created with Inkscape (http://www.inkscape.org/) -->

<svg
   width="217.21962mm"
   height="153.54764mm"
   viewBox="0 0 217.21962 153.54764"
   version="1.1"
   id="svg1"
   xml:space="preserve"
   xmlns:inkscape="http://www.inkscape.org/namespaces/inkscape"
   xmlns:sodipodi="http://sodipodi.sourceforge.net/DTD/sodipodi-0.dtd"
   xmlns="http://www.w3.org/2000/svg"
   xmlns:svg="http://www.w3.org/2000/svg"><sodipodi:namedview
     id="namedview1"
     pagecolor="#ffffff"
     bordercolor="#000000"
     borderopacity="0.25"
     inkscape:showpageshadow="2"
     inkscape:pageopacity="0.0"
     inkscape:pagecheckerboard="0"
     inkscape:deskcolor="#d1d1d1"
     inkscape:document-units="mm"><inkscape:page
       x="0"
       y="0"
       width="217.21962"
       height="153.54764"
       id="page2"
       margin="0"
       bleed="0" /></sodipodi:namedview><defs
     id="defs1" /><g
     inkscape:label="Capa 1"
     inkscape:groupmode="layer"
     id="layer1"
     transform="translate(229.97742,122.23777)"
     style="display:inline"><path
       style="font-variation-settings:'wght' 700;display:inline;fill:#3b877d;fill-opacity:1;stroke-width:0.1;stroke-linecap:round;stroke-linejoin:round"
       d="m -92.831289,-103.20247 c -16.651441,-10.82616 -26.896521,-10.22475 -37.148731,-9.63607 -20.72602,5.40189 -27.95778,14.721473 -33.36076,24.571991 l -11.48022,6.180381 c 1.10583,-4.370923 6.1011,-22.807182 26.93654,-33.926042 20.17547,-9.05296 33.01728,-6.67404 44.78456,-2.62011 6.067538,1.72443 9.862142,4.49062 13.877858,7.15546 4.596211,-3.94031 9.385213,-5.3468 14.599616,-1.16231 4.12798,4.06975 4.318615,9.37405 1.66139,14.155059 -4.092284,5.462985 -8.802958,6.096604 -13.689873,4.31962 -4.051444,-2.363317 -6.204449,-5.34569 -6.18038,-9.037979 z"
       id="path130716"
       sodipodi:nodetypes="ccccccccccc" /><path
       style="font-variation-settings:'wght' 700;fill:#4e2825;fill-opacity:1;stroke-width:0.1;stroke-linecap:round;stroke-linejoin:round"
       d="m -126.55661,-101.32674 c 0,0 2.41689,-1.29413 3.73581,-1.30401 1.37822,-0.0103 3.92377,1.30401 3.92377,1.30401 l 44.31277,21.428015 c 0.247441,-0.145553 3.465103,1.657306 3.615798,3.509655 0.112302,1.380417 -2.259616,2.858123 -3.145887,3.586028 l -44.265781,21.381029 c 0,0 -2.88056,1.421431 -4.42265,1.367124 -1.77796,-0.06261 -4.9756,-1.93102 -4.9756,-1.93102 l -44.1718,-21.381029 c -1.70552,-0.940055 -2.21853,-1.83752 -2.17516,-2.715114 -0.17468,-0.911958 0.37723,-1.823916 1.4233,-2.735874 z"
       id="path130717"
       sodipodi:nodetypes="caccsccaccccc" /><path
       style="font-variation-settings:'wght' 700;fill:#3b877d;fill-opacity:1;stroke-width:0.1;stroke-linecap:round;stroke-linejoin:round"
       d="m -68.569379,-70.312503 c 1.3379,22.190502 -5.802536,31.702121 -12.74846,41.656713 -9.813861,11.280312 -23.903271,18.9767354 -40.737341,18.7238933 -9.58319,0.3609108 -19.06085,-2.8664723 -28.46698,-8.5257373 -6.83995,6.228689 -14.73005,2.04611 -16.99909,-4.029504 -2.15242,-9.721207 5.20498,-12.953286 7.55385,-13.40426 3.79436,-1.28954 9.78988,0.49261 11.93578,5.803424 0.3641,1.096634 0.68153,2.286596 0.86934,3.735806 9.07358,5.726961 17.1253,7.494209 24.78789,7.753559 9.56105,-0.375913 19.2564,-2.6322 29.346055,-10.408566 5.816783,-4.554928 10.261963,-11.853062 13.956408,-20.652665 1.967822,-7.716471 2.231658,-12.365768 2.467042,-16.963851 z"
       id="path130718"
       sodipodi:nodetypes="ccccccccccccc" /><path
       style="font-variation-settings:'wght' 700;fill:#e5bb8b;fill-opacity:1;stroke-width:0.1;stroke-linecap:round;stroke-linejoin:round"
       d="m -174.29974,-72.991007 4.79681,2.769441 -0.0507,16.966893 c 5.29663,2.801294 5.06065,4.893279 5.68594,7.095683 -0.18304,4.719716 -2.91706,6.888453 -6.71975,7.988517 -3.99102,-0.155657 -6.98442,-1.762385 -8.22347,-5.920902 -0.84191,-5.274756 1.32063,-7.545052 4.46417,-8.834358 z"
       id="path130719"
       sodipodi:nodetypes="cccccccc" /><path
       style="font-variation-settings:'wght' 700;fill:#4e2825;fill-opacity:1;stroke-width:0.1;stroke-linecap:round;stroke-linejoin:round"
       d="m -90.608286,-59.950928 -0.07048,15.730328 c -0.257413,1.360524 -0.713055,2.679907 -2.608017,3.700563 -3.824432,2.244854 -7.648867,4.185581 -11.473297,5.86662 -3.92252,1.887809 -7.90564,3.957417 -11.66298,5.349684 -1.62993,0.477518 -3.27034,1.02847 -4.68513,0 V -46.18348 Z"
       id="path130720"
       sodipodi:nodetypes="cccccccc" /><path
       style="font-variation-settings:'wght' 700;fill:#e5bb8b;fill-opacity:1;stroke-width:0.1;stroke-linecap:round;stroke-linejoin:round"
       d="m -121.80597,-46.083796 v 16.846518 c -6.11129,-5.134992 -11.91799,-9.33486 -15.9826,-11.064872 -4.64645,-2.614708 -10.75047,-4.186656 -13.4905,-3.954116 -1.44624,-0.117562 -3.53479,0.457055 -4.08703,-2.492086 v -13.789557 l 15.9826,7.70886 12.42721,6.014241 c 1.75888,0.580551 3.51409,1.131712 5.15032,0.731012 z"
       id="path130721"
       sodipodi:nodetypes="ccccccccc" /></g><g
     inkscape:groupmode="layer"
     id="layer2"
     inkscape:label="educonexion"
     transform="translate(-26.932976,-48.683058)"><path
       style="font-variation-settings:'wght' 700;fill:#4e2825;fill-opacity:1;stroke-width:0.1;stroke-linecap:round;stroke-linejoin:round"
       d="m -221.15724,7.3798118 v 8.0411372 c 0.13812,0.622869 0.59174,0.867139 1.19621,0.930381 h 4.48576 c 1.37349,-0.09412 1.02594,-0.821252 1.12974,-1.329113 0.0739,-0.757371 1.49297,-0.836435 1.49526,0 v 5.582277 c -0.0579,0.821643 -1.33596,0.460568 -1.32912,0 l -0.29233,-1.220173 c -0.29473,-0.322502 -0.2772,-0.824215 -2.00039,-0.873182 h -3.90923 c -0.34399,0.0699 -0.79193,-0.137406 -0.87558,0.626742 v 6.783068 c 0.14111,2.001275 1.06283,2.068013 1.89399,2.359178 2.14036,0.102388 4.12538,0.04943 6.11392,0 1.39976,-0.334224 2.6709,-1.842113 3.82121,-4.452532 0.3906,-0.27201 1.08592,-0.262635 1.12974,0 v 6.080696 c 0.007,0.297676 0.0188,0.613706 -0.24434,0.677046 -0.22815,0.105082 -0.62883,0.03684 -0.95186,0.05396 h -19.83703 c 0,0 -0.64804,-0.06475 -0.64613,-0.801654 0.007,-0.69487 0.64613,-0.66037 0.64613,-0.66037 1.49479,0.07627 2.58352,-0.386246 2.45886,-2.45886 V 9.1741154 c -0.14732,-2.0992294 -0.93819,-2.5436384 -1.72748,-2.9920935 -0.49401,-0.1025728 -1.12108,0.07305 -1.29625,-0.6961982 0.0793,-0.2912825 -0.12542,-0.7157333 0.89715,-0.5648721 h 18.50791 c 0.68545,1.9706377 0.90048,3.9076742 1.16298,5.8481014 -0.38395,0.202811 -0.74658,0.478466 -1.49526,-0.564875 -0.97234,-1.3146207 -1.98969,-2.5962993 -4.21993,-2.9905061 z"
       id="path130722"
       sodipodi:nodetypes="ccccccccccccccccccccccccccccccccc"
       transform="translate(256.9104,170.92082)" /><path
       id="path130724"
       style="font-variation-settings:'wght' 700;fill:#4e2825;fill-opacity:1;stroke-width:0.1;stroke-linecap:round;stroke-linejoin:round"
       d="m -194.17108,16.040376 0.0331,10.814843 c -1.40951,1.688087 -4.15137,1.806429 -5.82084,-0.06615 -2.07656,-2.484619 -1.48892,-6.123726 -0.99219,-9.723437 0.56183,-1.600448 1.85378,-2.425143 3.91229,-2.435358 1.32334,-0.06445 2.22955,0.477836 2.86764,1.410102 z m -1.9355,-10.5131979 c -0.71707,0.257601 -0.6813,1.1867725 -0.0409,1.5727143 1.11192,0.050927 1.62529,0.6324415 1.81827,1.9761238 l 0.0117,3.2682058 c -0.0409,0.293152 0.0644,0.647221 -0.68989,0.643116 -3.15918,-0.696872 -6.12894,-0.511997 -7.85772,1.403167 -3.07634,2.690562 -3.45625,5.551001 -3.43776,8.489149 0.09,3.028881 1.11243,5.427767 3.50792,6.898893 3.07799,2.277587 4.7495,1.50781 6.36101,0.608037 l 1.21607,-0.818513 c 0.26961,-0.171085 0.54336,-0.315578 0.88868,0 0.21622,0.622116 0.22352,1.477488 1.40316,1.32782 l 5.07478,-0.883484 c 1.24386,-0.218954 1.01628,-1.219233 -0.0468,-1.496708 -1.19,-0.126759 -1.44421,-0.911822 -1.37954,-2.051126 l 0.19114,-22.1237753 c 0,0 0.0147,-0.3340051 -0.10226,-0.4616285 -0.12766,-0.1393556 -0.44838,-0.063592 -0.44838,-0.063592 z"
       transform="translate(256.9104,170.92082)" /><path
       style="font-variation-settings:'wght' 700;fill:#4e2825;fill-opacity:1;stroke-width:0.1;stroke-linecap:round;stroke-linejoin:round"
       d="m -180.14192,12.830242 c 0.87343,-0.0672 1.02271,0.268879 1.02899,1.099148 l -0.13229,11.288871 c 0.69017,2.290711 1.82932,2.785537 3.13374,2.61924 1.24309,0.01878 1.9337,-0.618391 3.04489,-1.566865 l 0.0661,-9.86893 c 0.0516,-1.372801 -0.82217,-1.502813 -1.21677,-1.473321 -1.01146,0.131358 -0.95681,-0.298954 -0.96343,-0.59621 -0.009,-0.411676 0.23913,-0.590503 0.96343,-0.643255 l 5.25018,-0.789279 c 0,0 0.61099,-0.09438 0.77173,0.116928 0.14351,0.18865 0.12865,0.689888 0.12865,0.689888 l -0.0935,13.47623 1.73057,1.099146 c 0.58769,0.413261 1.05197,0.841633 0.0468,1.449937 l -5.0638,1.000293 c -0.34392,0.05709 -1.02716,0.0622 -1.15159,-0.758042 0.0628,-0.193665 0.0807,-0.909397 0.0181,-1.458326 -1.55684,1.544641 -3.22491,2.255068 -4.95785,2.478924 -4.59342,0.69039 -5.90167,-1.374516 -6.43118,-4.092565 l -0.16954,-10.780985 c -0.18927,-0.74935 -0.5165,-0.716431 -1.09613,-0.747865 -0.73753,-0.04608 -1.10449,-0.325973 -1.09631,-0.912302 -0.0406,-0.212238 -0.0876,-0.711614 0.82796,-0.863179 z"
       id="path130725"
       sodipodi:nodetypes="cccccccsccscccccccccccccc"
       transform="translate(256.9104,170.92082)" /><path
       style="font-variation-settings:'wght' 700;fill:#4e2825;fill-opacity:1;stroke-width:0.1;stroke-linecap:round;stroke-linejoin:round"
       d="m -141.80645,6.0400094 c 0.32941,1.9508471 0.11378,3.7535271 0.0959,5.3570766 0.0774,0.804422 -0.33967,1.171514 -0.59268,1.252391 -0.38371,0.122659 -0.68765,-0.324525 -1.13789,-1.112074 -2.42794,-4.4334317 -5.6824,-5.3128063 -9.35444,-4.3965841 -2.85986,1.9049078 -5.67813,3.8859011 -5.00462,12.2543061 0.73147,5.624488 3.82689,7.157533 6.78196,8.933486 3.70652,0.01095 6.47419,-0.899664 7.62387,-3.320826 l 0.98221,-2.198291 c 0.12574,-0.25816 0.35728,-0.309595 0.56046,-0.329502 0.23607,0.009 0.47827,0.09218 0.56208,0.423042 -0.0786,1.902987 -0.17598,3.834243 -0.5145,6.127155 -0.13083,0.474845 -0.68593,1.052705 -2.00293,1.351206 -3.49441,1.149385 -7.05322,1.162745 -10.67233,0.192275 -4.01895,-1.091138 -7.40119,-3.493135 -9.30766,-8.933484 -0.97928,-7.36634 1.0519,-12.2695807 5.8933,-14.8735491 4.1939,-2.7660082 8.61932,-2.7471802 12.81322,-1.8023893 1.28454,0.3907856 2.23703,0.7262299 3.27405,1.0757618 z"
       id="path130726"
       sodipodi:nodetypes="ccsccccccccccccccc"
       transform="translate(256.9104,170.92082)" /><path
       id="path130727"
       style="font-variation-settings:'wght' 700;fill:#4e2825;fill-opacity:1;stroke-width:0.1;stroke-linecap:round;stroke-linejoin:round"
       d="m -130.18687,12.744972 c -1.93722,-0.03091 -4.09098,0.485359 -5.84202,1.939416 -1.39491,1.242453 -3.73293,3.448013 -3.27422,8.962761 0.33864,3.615434 3.86253,8.024479 9.02891,7.507552 1.31232,0.02021 6.08821,-0.935883 7.87135,-5.225521 0.82281,-3.918356 1.76792,-8.533577 -3.24114,-11.840104 -0.885,-0.73512 -2.60566,-1.313198 -4.54288,-1.344104 z m -0.85938,1.973006 c 2.61262,0.396626 2.88154,1.393856 3.6127,2.360063 1.39519,2.363601 1.94637,6.168205 0.31574,10.034529 -0.76822,1.654035 -4.04897,3.371443 -5.89318,0.187069 -0.8419,-0.919848 -1.34064,-2.806505 -1.49655,-5.659603 0.0476,-1.403165 -0.12633,-2.707178 0.39843,-4.143416 0.61725,-1.58434 1.40832,-2.721013 3.06286,-2.778642 z"
       transform="translate(256.9104,170.92082)" /><path
       id="path130727-1"
       style="font-variation-settings:'wght' 700;fill:#4e2825;fill-opacity:1;stroke-width:0.1;stroke-linecap:round;stroke-linejoin:round"
       d="m -43.715138,12.858586 c -1.93722,-0.03091 -4.09098,0.485359 -5.84202,1.939416 -1.39491,1.242453 -3.73293,3.448013 -3.27422,8.962761 0.33864,3.615434 3.86253,8.024479 9.02891,7.507552 1.31232,0.02021 6.08821,-0.935883 7.87135,-5.225521 0.82281,-3.918356 1.76792,-8.533577 -3.24114,-11.840104 -0.885,-0.73512 -2.60566,-1.313198 -4.54288,-1.344104 z m -0.85938,1.973006 c 2.61262,0.396626 2.88154,1.393856 3.6127,2.360063 1.39519,2.363601 1.94637,6.168205 0.31574,10.034529 -0.76822,1.654035 -4.04897,3.371443 -5.89318,0.187069 -0.8419,-0.919848 -1.34064,-2.806505 -1.49655,-5.659603 0.0476,-1.403165 -0.12633,-2.707178 0.39843,-4.143416 0.61725,-1.58434 1.40832,-2.721013 3.06286,-2.778642 z"
       transform="translate(256.9104,170.92082)" /><path
       style="font-variation-settings:'wght' 700;fill:#4e2825;fill-opacity:1;stroke-width:0.1;stroke-linecap:round;stroke-linejoin:round"
       d="m -119.92238,14.089074 c -0.55782,0.335627 -0.49107,0.955622 0,1.223697 0.57433,0.219973 1.13464,0.253086 1.75286,1.058334 V 28.67423 c -0.0142,0.447507 -0.44569,0.631022 -1.22369,0.595312 l -0.62839,-0.03307 c -0.60795,0.180422 -0.82816,1.099353 0,1.322917 h 8.16901 c 0.64836,-0.239011 0.74105,-1.006718 0,-1.488281 h -0.76068 c -0.55682,0.0576 -0.61254,-0.676905 -0.58894,-1.020078 V 17.363292 c 0.84626,-1.234945 1.91286,-1.376854 2.95265,-1.340112 2.56707,-0.341159 3.13109,1.717675 3.3128,2.410139 l 0.21047,9.976327 c 0.0753,0.523953 -0.29552,0.801772 -1.12448,0.826823 -0.97641,0.0086 -0.97042,1.380048 0.05,1.290431 h 7.62386 c 1.124718,-0.147914 0.584837,-1.295862 0,-1.286232 h -1.1693 c -0.43419,-0.274592 -0.58506,-0.685177 -0.63143,-1.145918 v -9.471364 c -0.30529,-2.119282 -0.98043,-3.839122 -2.38538,-4.770763 -1.54852,-1.233555 -3.20845,-1.130259 -4.88769,-0.795126 -1.10197,0.200655 -2.46144,0.809012 -4.09257,1.847501 l -0.0468,-1.262848 c -0.0641,-0.599815 -0.38268,-0.784535 -0.86528,-0.701582 z"
       id="path130728"
       sodipodi:nodetypes="cccccccccccccccccccccccccccc"
       transform="translate(256.9104,170.92082)" /><path
       style="font-variation-settings:'wght' 700;fill:#4e2825;fill-opacity:1;stroke-width:0.1;stroke-linecap:round;stroke-linejoin:round"
       d="m -33.159614,14.21716 c -0.55782,0.335627 -0.49107,0.955622 0,1.223697 0.57433,0.219973 1.13464,0.253086 1.75286,1.058334 v 12.303125 c -0.0142,0.447507 -0.44569,0.631022 -1.22369,0.595312 l -0.62839,-0.03307 c -0.60795,0.180422 -0.82816,1.099353 0,1.322917 h 8.16901 c 0.64836,-0.239011 0.74105,-1.006718 0,-1.488281 h -0.76068 c -0.55682,0.0576 -0.61254,-0.676905 -0.58894,-1.020078 V 17.491378 c 0.84626,-1.234945 1.91286,-1.376854 2.95265,-1.340112 2.56707,-0.341159 3.13109,1.717675 3.3128,2.410139 l 0.21047,9.976327 c 0.0753,0.523953 -0.29552,0.801772 -1.12448,0.826823 -0.97641,0.0086 -0.97042,1.380048 0.05,1.290431 h 7.62386 c 1.124718,-0.147914 0.584837,-1.295862 0,-1.286232 h -1.1693 c -0.43419,-0.274592 -0.58506,-0.685177 -0.63143,-1.145918 v -9.471364 c -0.30529,-2.119282 -0.98043,-3.839122 -2.38538,-4.770763 -1.54852,-1.233555 -3.20845,-1.130259 -4.88769,-0.795126 -1.10197,0.200655 -2.46144,0.809012 -4.09257,1.847501 l -0.0468,-1.262848 c -0.0641,-0.599815 -0.38268,-0.784535 -0.86528,-0.701582 z"
       id="path130728-5"
       sodipodi:nodetypes="cccccccccccccccccccccccccccc"
       transform="translate(256.9104,170.92082)" /><path
       id="path130730"
       style="font-variation-settings:'wght' 700;fill:#4e2825;fill-opacity:1;stroke-width:0.1;stroke-linecap:round;stroke-linejoin:round"
       d="m -90.123681,12.799232 c -6.317939,0.05397 -8.57218,3.475 -8.73125,8.632031 -0.269822,4.611543 1.488316,7.985688 6.416146,9.425782 3.210754,0.681274 6.302361,-0.0077 9.161197,-3.373438 0.09288,-0.252884 0.276463,-1.137278 -0.926041,-0.926042 -1.271171,0.501069 -1.113693,1.229423 -5.986198,1.157552 -1.798935,-0.681309 -3.587538,-1.400768 -4.266406,-6.217708 h 10.351823 c 1.164566,-0.007 0.84595,-1.055027 0.859895,-1.554427 -0.674326,-5.466953 -3.396627,-7.029954 -6.879166,-7.14375 z m -0.839226,1.451074 c 2.094886,0.0282 3.286297,2.426235 3.15433,5.436361 h -6.507096 c -0.07518,-2.813027 1.223865,-5.465011 3.352766,-5.436361 z"
       transform="translate(256.9104,170.92082)" /><path
       style="font-variation-settings:'wght' 700;fill:#4e2825;fill-opacity:1;stroke-width:0.1;stroke-linecap:round;stroke-linejoin:round"
       d="m -82.335012,12.948058 c -0.644618,0.322496 -0.435721,1.244268 0,1.207161 l 0.479558,0.107483 c 2.572871,1.873954 4.3325,5.211745 6.327515,8.125839 l -4.747375,5.729591 c -0.503077,0.60374 -1.135744,1.020297 -2.034589,1.052373 -0.916239,0.166707 -1.086289,1.217046 -0.140316,1.543481 h 5.799749 c 1.025703,-0.700359 0.07496,-1.520589 -0.23386,-1.403165 -0.683467,0.130462 -1.085333,-0.851224 -0.654812,-1.449938 l 3.133735,-3.648228 2.666013,3.928861 c 0.285893,0.526188 0.738724,1.012923 -0.613883,1.081607 -0.987582,-0.07518 -1.492749,1.18089 0.0058,1.257003 l 7.998039,0.04677 c 0.935295,-0.333122 0.614977,-1.21921 0,-1.403165 l -0.919996,-0.01488 c -1.36164,-1.50114 -3.93429,-5.4243 -5.903515,-8.140609 l 5.414271,-6.133851 c 0.352333,-0.365649 0.939475,-0.604158 1.663333,-0.662633 0.347653,-0.05086 0.600109,-0.839055 -0.03307,-1.107943 h -6.085417 c -0.617095,0.27803 -0.433393,1.084451 0,1.157552 1.059202,0.298433 1.256501,0.852743 0.906219,1.569617 l -2.758302,3.490539 -2.447396,-3.704166 c -0.424426,-0.790037 -0.06542,-1.097537 0.410746,-1.313058 l 0.383004,-0.109075 c 0.655874,-0.06991 0.408655,-1.147017 -0.06615,-1.058333 z"
       id="path130731"
       sodipodi:nodetypes="cccccccccccccccccccccccccccccc"
       transform="translate(256.9104,170.92082)" /><path
       style="font-variation-settings:'wght' 700;fill:#4e2825;fill-opacity:1;stroke-width:0.1;stroke-linecap:round;stroke-linejoin:round"
       d="m -62.573944,14.320584 c -0.5016,0.181903 -0.584295,0.622871 -0.115756,1.091406 0.671496,0.315625 1.407715,0.517143 1.670182,1.30638 v 11.757422 c -0.08516,0.353677 -0.223993,0.667096 -0.744141,0.694531 l -1.289843,-0.08268 c -0.589598,0.092 -0.822206,1.288554 0,1.455208 h 8.714713 c 0.813135,-0.287273 0.372818,-1.42132 -0.08268,-1.322916 l -0.636654,-0.01654 c -1.037111,-0.115549 -1.191652,-0.767867 -1.198893,-1.35599 V 12.468501 Z"
       id="path130732"
       sodipodi:nodetypes="ccccccccccccc"
       transform="translate(256.9104,170.92082)" /><ellipse
       style="font-variation-settings:'wght' 700;fill:#4e2825;fill-opacity:1;stroke-width:0.1;stroke-linecap:round;stroke-linejoin:round"
       id="path130733"
       ry="2.8773437"
       rx="2.66237"
       cy="8.6651154"
       cx="-58.720951"
       transform="translate(256.9104,170.92082)" /><path
       style="font-variation-settings:'wght' 700;fill:#4e2825;fill-opacity:1;stroke-width:0.1;stroke-linecap:round;stroke-linejoin:round"
       d="m -46.155017,9.4560395 c -0.422153,1.2348455 0.448245,1.3418405 1.099146,0.9822155 l 5.355412,-4.069178 c 0.538917,-0.5435471 1.205289,-0.9993739 0.334499,-1.7114388 l -2.158613,-1.0948908 c -0.373896,-0.096311 -0.806238,-0.00337 -1.637024,1.3797783 z"
       id="path130734"
       sodipodi:nodetypes="ccccccc"
       transform="translate(256.9104,170.92082)" /></g></svg>
