<?xml version="1.0" encoding="UTF-8" standalone="no"?>
<!-- Created with Inkscape (http://www.inkscape.org/) -->

<svg
   width="110.58736mm"
   height="112.33324mm"
   viewBox="0 0 110.58736 112.33326"
   version="1.1"
   id="svg1"
   xml:space="preserve"
   inkscape:export-filename="imagotipo educonexion.svg"
   inkscape:export-xdpi="96"
   inkscape:export-ydpi="96"
   xmlns:inkscape="http://www.inkscape.org/namespaces/inkscape"
   xmlns:sodipodi="http://sodipodi.sourceforge.net/DTD/sodipodi-0.dtd"
   xmlns="http://www.w3.org/2000/svg"
   xmlns:svg="http://www.w3.org/2000/svg"><sodipodi:namedview
     id="namedview1"
     pagecolor="#ffffff"
     bordercolor="#000000"
     borderopacity="0.25"
     inkscape:showpageshadow="2"
     inkscape:pageopacity="0.0"
     inkscape:pagecheckerboard="0"
     inkscape:deskcolor="#d1d1d1"
     inkscape:document-units="mm"><inkscape:page
       x="5.6543167e-22"
       y="0"
       width="110.58736"
       height="112.33326"
       id="page2"
       margin="0"
       bleed="0" /></sodipodi:namedview><defs
     id="defs1" /><g
     inkscape:label="Capa 1"
     inkscape:groupmode="layer"
     id="layer1"
     transform="translate(178.99385,122.23777)"
     style="display:inline"><path
       style="font-variation-settings:'wght' 700;display:inline;fill:#3b877d;fill-opacity:1;stroke-width:0.1;stroke-linecap:round;stroke-linejoin:round"
       d="m -92.831289,-103.20247 c -16.651441,-10.82616 -26.896521,-10.22475 -37.148731,-9.63607 -20.72602,5.40189 -27.95778,14.721473 -33.36076,24.571991 l -11.48022,6.180381 c 1.10583,-4.370923 6.1011,-22.807182 26.93654,-33.926042 20.17547,-9.05296 33.01728,-6.67404 44.78456,-2.62011 6.067538,1.72443 9.862142,4.49062 13.877858,7.15546 4.596211,-3.94031 9.385213,-5.3468 14.599616,-1.16231 4.12798,4.06975 4.318615,9.37405 1.66139,14.155059 -4.092284,5.462985 -8.802958,6.096604 -13.689873,4.31962 -4.051444,-2.363317 -6.204449,-5.34569 -6.18038,-9.037979 z"
       id="path130716"
       sodipodi:nodetypes="ccccccccccc" /><path
       style="font-variation-settings:'wght' 700;fill:#4e2825;fill-opacity:1;stroke-width:0.1;stroke-linecap:round;stroke-linejoin:round"
       d="m -126.55661,-101.32674 c 0,0 2.41689,-1.29413 3.73581,-1.30401 1.37822,-0.0103 3.92377,1.30401 3.92377,1.30401 l 44.31277,21.428015 c 0.247441,-0.145553 3.465103,1.657306 3.615798,3.509655 0.112302,1.380417 -2.259616,2.858123 -3.145887,3.586028 l -44.265781,21.381029 c 0,0 -2.88056,1.421431 -4.42265,1.367124 -1.77796,-0.06261 -4.9756,-1.93102 -4.9756,-1.93102 l -44.1718,-21.381029 c -1.70552,-0.940055 -2.21853,-1.83752 -2.17516,-2.715114 -0.17468,-0.911958 0.37723,-1.823916 1.4233,-2.735874 z"
       id="path130717"
       sodipodi:nodetypes="caccsccaccccc" /><path
       style="font-variation-settings:'wght' 700;fill:#3b877d;fill-opacity:1;stroke-width:0.1;stroke-linecap:round;stroke-linejoin:round"
       d="m -68.569379,-70.312503 c 1.3379,22.190502 -5.802536,31.702121 -12.74846,41.656713 -9.813861,11.280312 -23.903271,18.9767354 -40.737341,18.7238933 -9.58319,0.3609108 -19.06085,-2.8664723 -28.46698,-8.5257373 -6.83995,6.228689 -14.73005,2.04611 -16.99909,-4.029504 -2.15242,-9.721207 5.20498,-12.953286 7.55385,-13.40426 3.79436,-1.28954 9.78988,0.49261 11.93578,5.803424 0.3641,1.096634 0.68153,2.286596 0.86934,3.735806 9.07358,5.726961 17.1253,7.494209 24.78789,7.753559 9.56105,-0.375913 19.2564,-2.6322 29.346055,-10.408566 5.816783,-4.554928 10.261963,-11.853062 13.956408,-20.652665 1.967822,-7.716471 2.231658,-12.365768 2.467042,-16.963851 z"
       id="path130718"
       sodipodi:nodetypes="ccccccccccccc" /><path
       style="font-variation-settings:'wght' 700;fill:#e5bb8b;fill-opacity:1;stroke-width:0.1;stroke-linecap:round;stroke-linejoin:round"
       d="m -174.29974,-72.991007 4.79681,2.769441 -0.0507,16.966893 c 5.29663,2.801294 5.06065,4.893279 5.68594,7.095683 -0.18304,4.719716 -2.91706,6.888453 -6.71975,7.988517 -3.99102,-0.155657 -6.98442,-1.762385 -8.22347,-5.920902 -0.84191,-5.274756 1.32063,-7.545052 4.46417,-8.834358 z"
       id="path130719"
       sodipodi:nodetypes="cccccccc" /><path
       style="font-variation-settings:'wght' 700;fill:#4e2825;fill-opacity:1;stroke-width:0.1;stroke-linecap:round;stroke-linejoin:round"
       d="m -90.608286,-59.950928 -0.07048,15.730328 c -0.257413,1.360524 -0.713055,2.679907 -2.608017,3.700563 -3.824432,2.244854 -7.648867,4.185581 -11.473297,5.86662 -3.92252,1.887809 -7.90564,3.957417 -11.66298,5.349684 -1.62993,0.477518 -3.27034,1.02847 -4.68513,0 V -46.18348 Z"
       id="path130720"
       sodipodi:nodetypes="cccccccc" /><path
       style="font-variation-settings:'wght' 700;fill:#e5bb8b;fill-opacity:1;stroke-width:0.1;stroke-linecap:round;stroke-linejoin:round"
       d="m -121.80597,-46.083796 v 16.846518 c -6.11129,-5.134992 -11.91799,-9.33486 -15.9826,-11.064872 -4.64645,-2.614708 -10.75047,-4.186656 -13.4905,-3.954116 -1.44624,-0.117562 -3.53479,0.457055 -4.08703,-2.492086 v -13.789557 l 15.9826,7.70886 12.42721,6.014241 c 1.75888,0.580551 3.51409,1.131712 5.15032,0.731012 z"
       id="path130721"
       sodipodi:nodetypes="ccccccccc" /></g></svg>
